HIERARCHY
ROOT Hips
{
	OFFSET 0.000000 0.000000 0.000000
	CHANNELS 6 Xposition Yposition Zposition Zrotation Yrotation Xrotation 
	JOINT LowerBack
	{
		OFFSET 0.000000 0.000000 0.000000
		CHANNELS 3 Zrotation Yrotation Xrotation
		JOINT Spine
		{
			OFFSET 0.028270 2.035590 -0.193380
			CHANNELS 3 Zrotation Yrotation Xrotation
			JOINT Spine1
			{
				OFFSET 0.056720 2.048850 -0.042750
				CHANNELS 3 Zrotation Yrotation Xrotation
				JOINT Neck
				{
					OFFSET 0.000000 0.000000 0.000000
					CHANNELS 3 Zrotation Yrotation Xrotation
					JOINT Neck1
					{
						OFFSET -0.054170 1.746240 0.172020
						CHANNELS 3 Zrotation Yrotation Xrotation
						JOINT Head
						{
							OFFSET 0.104070 1.761360 -0.123970
							CHANNELS 3 Zrotation Yrotation Xrotation
							End Site
							{
								OFFSET 0.000000 0.000000 0.000000
							}
						}
					}
				}
				JOINT LeftShoulder
				{
					OFFSET 0.000000 0.000000 0.000000
					CHANNELS 3 Zrotation Yrotation Xrotation
					JOINT LeftArm
					{
						OFFSET 3.362410 1.200890 -0.311210
						CHANNELS 3 Zrotation Yrotation Xrotation
						JOINT LeftForeArm
						{
							OFFSET 4.983000 -0.000000 -0.000000
							CHANNELS 3 Zrotation Yrotation Xrotation
							JOINT LeftHand
							{
								OFFSET 3.483560 -0.000000 -0.000000
								CHANNELS 3 Zrotation Yrotation Xrotation
								JOINT LeftFingerBase
								{
									OFFSET 0.000000 0.000000 0.000000
									CHANNELS 3 Zrotation Yrotation Xrotation
									JOINT LeftHandIndex1
									{
										OFFSET 0.715260 -0.000000 -0.000000
										CHANNELS 3 Zrotation Yrotation Xrotation
										End Site
										{
											OFFSET 0.000000 0.000000 0.000000
										}
									}
								}
								JOINT LThumb
								{
									OFFSET 0.000000 0.000000 0.000000
									CHANNELS 3 Zrotation Yrotation Xrotation
									End Site
									{
										OFFSET 0.000000 0.000000 0.000000
									}
								}
							}
						}
					}
				}
				JOINT RightShoulder
				{
					OFFSET 0.000000 0.000000 0.000000
					CHANNELS 3 Zrotation Yrotation Xrotation
					JOINT RightArm
					{
						OFFSET -3.136600 1.374050 -0.404650
						CHANNELS 3 Zrotation Yrotation Xrotation
						JOINT RightForeArm
						{
							OFFSET -5.241900 -0.000000 -0.000000
							CHANNELS 3 Zrotation Yrotation Xrotation
							JOINT RightHand
							{
								OFFSET -3.444170 -0.000000 -0.000000
								CHANNELS 3 Zrotation Yrotation Xrotation
								JOINT RightFingerBase
								{
									OFFSET 0.000000 0.000000 0.000000
									CHANNELS 3 Zrotation Yrotation Xrotation
									JOINT RightHandIndex1
									{
										OFFSET -0.622530 -0.000000 -0.000000
										CHANNELS 3 Zrotation Yrotation Xrotation
										End Site
										{
											OFFSET 0.000000 0.000000 0.000000
										}
									}
								}
								JOINT RThumb
								{
									OFFSET 0.000000 0.000000 0.000000
									CHANNELS 3 Zrotation Yrotation Xrotation
									End Site
									{
										OFFSET 0.000000 0.000000 0.000000
									}
								}
							}
						}
					}
				}
			}
		}
	}
}
}
MOTION
Frames: 16
Frame Time: 0.008333
-11.563316 17.764877 -1.140394 -165.520386 85.896562 -144.096204 4.671291 -6.398897 -11.672266 1.717989 -6.978969 -5.082826 -3.139103 -7.240899 0.455586 7.221250 -23.293449 -9.744419 -2.202127 -0.150872 -0.418147 0.000000 0.000000 0.000000 10.750737 0.886623 -3.260404 -81.746389 -18.937082 26.796751 179.719563 -63.368784 179.795512 20.273151 -23.577704 -4.691810 -0.633632 1.564887 -0.000000 0.000000 0.000000 0.000000 0.000000 0.000000 0.000000 2.239363 -22.065720 -0.924680 58.520168 -11.943677 20.763072 179.700690 74.754753 179.941077 -16.067318 27.501734 -4.136024 0.264501 -0.772079 0.000000 0.000000 0.000000 0.000000 0.000000 0.000000 0.000000 
-11.304681 17.814817 -1.127898 -161.112768 85.947247 -139.833746 4.934124 -6.628577 -11.646944 1.858745 -7.244027 -5.105130 -2.982424 -7.533545 0.430376 7.320324 -23.779486 -9.867049 -2.135623 -0.143793 -0.449675 0.000000 0.000000 0.000000 11.154610 0.445959 -3.301831 -82.506720 -18.224139 27.320844 179.589973 -63.144373 179.795993 19.911357 -23.263615 -4.545905 -0.621245 1.561354 -0.000000 0.000000 0.000000 0.000000 0.000000 0.000000 0.000000 2.071587 -22.662049 -0.917809 57.614445 -11.583406 20.596725 179.665509 73.938696 179.942815 -15.834711 27.530715 -4.083154 0.267806 -0.782867 0.000000 0.000000 0.000000 0.000000 0.000000 0.000000 0.000000 
-11.049261 17.853435 -1.111622 -157.419844 85.978087 -136.325143 5.108031 -6.858729 -11.558102 1.974001 -7.500273 -5.114233 -2.851001 -7.814478 0.381616 7.479406 -24.237377 -9.980325 -2.084508 -0.138078 -0.478637 0.000000 0.000000 0.000000 11.582815 -0.068600 -3.348522 -83.241905 -17.421130 27.731769 179.447798 -62.919047 179.795869 19.560325 -22.887332 -4.392103 -0.607181 1.554048 -0.000000 0.000000 0.000000 0.000000 0.000000 0.000000 0.000000 2.020833 -23.224526 -0.906583 56.758043 -11.192179 20.414169 179.624908 73.114670 179.944805 -15.611441 27.610782 -4.040364 0.271716 -0.795065 0.000000 0.000000 0.000000 0.000000 0.000000 0.000000 0.000000 
-10.796932 17.880839 -1.091874 -154.263973 86.000073 -133.385881 5.208067 -7.083273 -11.417226 2.064202 -7.742293 -5.108915 -2.749399 -8.077254 0.324663 7.699743 -24.659249 -10.089118 -2.047781 -0.133583 -0.506435 0.000000 0.000000 0.000000 11.997576 -0.573293 -3.392240 -83.942381 -16.614746 28.093261 179.306438 -62.747653 179.795321 19.274128 -22.470037 -4.247363 -0.594257 1.543028 -0.000000 0.000000 0.000000 0.000000 0.000000 0.000000 0.000000 2.098381 -23.746847 -0.902301 55.944633 -10.777613 20.230574 179.579877 72.291897 179.946974 -15.414891 27.727788 -4.009958 0.276435 -0.808248 0.000000 0.000000 0.000000 0.000000 0.000000 0.000000 0.000000 
-10.547690 17.897319 -1.069201 -151.464757 86.021665 -130.824110 5.251309 -7.298293 -11.241287 2.132137 -7.967177 -5.093523 -2.675348 -8.318895 0.258060 7.965767 -25.042197 -10.184125 -2.025599 -0.130513 -0.530353 0.000000 0.000000 0.000000 12.383648 -1.083775 -3.432006 -84.600577 -15.779806 28.387385 179.163912 -62.624681 179.794505 19.039098 -22.033522 -4.112381 -0.581836 1.528950 -0.000000 0.000000 0.000000 0.000000 0.000000 0.000000 0.000000 2.281859 -24.224216 -0.902747 55.191111 -10.339119 20.052831 179.529690 71.497995 179.949404 -15.220449 27.875197 -3.984139 0.281407 -0.821967 0.000000 0.000000 0.000000 0.000000 0.000000 0.000000 0.000000 
-10.301359 17.903202 -1.044076 -148.915022 86.046739 -128.518940 5.251090 -7.500650 -11.049638 2.180081 -8.172974 -5.071752 -2.627513 -8.537362 0.186281 8.264093 -25.385166 -10.261696 -2.016643 -0.128842 -0.549368 0.000000 0.000000 0.000000 12.721306 -1.586984 -3.465292 -85.208837 -14.922148 28.619361 179.023183 -62.561212 179.793589 18.854524 -21.601460 -3.990643 -0.570029 1.512483 -0.000000 0.000000 0.000000 0.000000 0.000000 0.000000 0.000000 2.552065 -24.655648 -0.909108 54.514191 -9.872896 19.890360 179.474869 70.757052 179.952116 -15.014451 28.037211 -3.956716 0.286210 -0.835656 0.000000 0.000000 0.000000 0.000000 0.000000 0.000000 0.000000 
-10.057848 17.898878 -1.016873 -146.586631 86.078674 -126.433286 5.214617 -7.689142 -10.857725 2.209546 -8.359238 -5.046723 -2.603960 -8.732268 0.112874 8.580354 -25.688833 -10.318526 -2.019291 -0.128502 -0.562565 0.000000 0.000000 0.000000 12.996710 -2.077543 -3.491029 -85.759259 -14.040730 28.788218 178.885847 -62.562108 179.792704 18.711792 -21.192113 -3.883043 -0.558542 1.494242 -0.000000 0.000000 0.000000 0.000000 0.000000 0.000000 0.000000 2.886891 -25.042108 -0.921435 53.935089 -9.372925 19.751712 179.416344 70.093775 179.955087 -14.782670 28.196169 -3.921294 0.290378 -0.848703 0.000000 0.000000 0.000000 0.000000 0.000000 0.000000 0.000000 
-9.816919 17.884607 -0.987810 -144.557813 86.128960 -124.640614 5.137900 -7.863963 -10.676252 2.219799 -8.525882 -5.019483 -2.603236 -8.903399 0.044092 8.902977 -25.955199 -10.355403 -2.031205 -0.129278 -0.570231 0.000000 0.000000 0.000000 13.196861 -2.538074 -3.508195 -86.242913 -13.144852 28.900782 178.755861 -62.638538 179.792001 18.603375 -20.825908 -3.791181 -0.547192 1.474894 -0.000000 0.000000 0.000000 0.000000 0.000000 0.000000 0.000000 3.268111 -25.386365 -0.941062 53.475429 -8.830278 19.645099 179.355644 69.527010 179.958244 -14.518023 28.332091 -3.872776 0.293583 -0.860529 0.000000 0.000000 0.000000 0.000000 0.000000 0.000000 0.000000 
-9.578429 17.860617 -0.957107 -142.943614 86.213824 -123.261379 5.010569 -8.026452 -10.506631 2.209201 -8.673351 -4.989199 -2.623611 -9.051194 -0.015717 9.221451 -26.185159 -10.373382 -2.050452 -0.130968 -0.572740 0.000000 0.000000 0.000000 13.315216 -2.958125 -3.516982 -86.651279 -12.237578 28.957028 178.635869 -62.793915 179.791581 18.516513 -20.516242 -3.714253 -0.535533 1.454992 -0.000000 0.000000 0.000000 0.000000 0.000000 0.000000 0.000000 3.678853 -25.689333 -0.968272 53.156633 -8.236683 19.575183 179.294420 69.071003 179.961497 -14.216347 28.427705 -3.807766 0.295571 -0.870673 0.000000 0.000000 0.000000 0.000000 0.000000 0.000000 0.000000 
-9.342279 17.826815 -0.925057 -141.773964 86.341079 -122.342544 4.829088 -8.177361 -10.337464 2.178150 -8.802373 -4.952970 -2.663409 -9.176855 -0.064152 9.526706 -26.378897 -10.374301 -2.074889 -0.133324 -0.570755 0.000000 0.000000 0.000000 13.350382 -3.330235 -3.517904 -86.979854 -11.320804 28.953520 178.527818 -63.027876 179.791497 18.437686 -20.268869 -3.650164 -0.523085 1.434922 -0.000000 0.000000 0.000000 0.000000 0.000000 0.000000 0.000000 4.100984 -25.950719 -1.002317 52.999162 -7.584603 19.543059 179.234699 68.732199 179.964701 -13.880333 28.471005 -3.725565 0.296213 -0.878927 0.000000 0.000000 0.000000 0.000000 0.000000 0.000000 0.000000 
-9.108424 17.782998 -0.892111 -141.035409 86.520134 -121.889373 4.592106 -8.315989 -10.154223 2.127316 -8.912499 -4.907476 -2.721768 -9.280383 -0.099713 9.812364 -26.533065 -10.360888 -2.102976 -0.136132 -0.565218 0.000000 0.000000 0.000000 13.301876 -3.642589 -3.510661 -87.225439 -10.400140 28.889414 178.434909 -63.342088 179.791791 18.356663 -20.088019 -3.597516 -0.509574 1.415013 -0.000000 0.000000 0.000000 0.000000 0.000000 0.000000 0.000000 4.521852 -26.165730 -1.042523 53.015815 -6.869328 19.545699 179.178466 68.509910 179.967695 -13.521053 28.455532 -3.628771 0.295589 -0.885278 0.000000 0.000000 0.000000 0.000000 0.000000 0.000000 0.000000 
-8.876773 17.728699 -0.858912 -140.568926 86.746003 -121.761326 4.314061 -8.439610 -9.939582 2.060675 -9.002994 -4.850062 -2.798267 -9.361829 -0.123344 10.074026 -26.641433 -10.335679 -2.133774 -0.139236 -0.557036 0.000000 0.000000 0.000000 13.173440 -3.886011 -3.494373 -87.389950 -9.480706 28.761459 178.359731 -63.732280 179.792450 18.267184 -19.972212 -3.554610 -0.494965 1.395518 -0.000000 0.000000 0.000000 0.000000 0.000000 0.000000 0.000000 4.930271 -26.326075 -1.087467 53.213916 -6.090185 19.576324 179.127646 68.395082 179.970294 -13.156031 28.382066 -3.522787 0.293926 -0.890003 0.000000 0.000000 0.000000 0.000000 0.000000 0.000000 0.000000 
-8.647325 17.663514 -0.826155 -140.096035 87.002041 -121.692019 4.021167 -8.544556 -9.680123 1.984336 -9.073478 -4.779746 -2.893495 -9.421616 -0.137953 10.310223 -26.694474 -10.300958 -2.167256 -0.142574 -0.547012 0.000000 0.000000 0.000000 12.969434 -4.052728 -3.466826 -87.478128 -8.565256 28.566913 178.304596 -64.194905 179.793441 18.168232 -19.916446 -3.520337 -0.479471 1.376539 -0.000000 0.000000 0.000000 0.000000 0.000000 0.000000 0.000000 5.320331 -26.419506 -1.135800 53.590981 -5.250841 19.625547 179.083726 68.370338 179.972320 -12.807441 28.259147 -3.415407 0.291588 -0.893638 0.000000 0.000000 0.000000 0.000000 0.000000 0.000000 0.000000 
-8.419989 17.587052 -0.794536 -139.187232 87.255898 -121.252791 3.752813 -8.627574 -9.370870 1.907066 -9.125453 -4.697843 -3.008794 -9.462072 -0.147562 10.522405 -26.681275 -10.258988 -2.204306 -0.146184 -0.535870 0.000000 0.000000 0.000000 12.695433 -4.137781 -3.424910 -87.496890 -7.655205 28.303225 178.270636 -64.725788 179.794682 18.066484 -19.912290 -3.494491 -0.463620 1.358029 0.000000 0.000000 0.000000 0.000000 0.000000 0.000000 0.000000 5.692042 -26.432919 -1.186670 54.136473 -4.358110 19.683502 179.047772 68.414804 179.973620 -12.499298 28.101402 -3.315229 0.289014 -0.896840 -0.000000 0.000000 0.000000 0.000000 0.000000 0.000000 0.000000 
-8.194595 17.499433 -0.764646 -137.344937 87.475566 -119.936683 3.546131 -8.686322 -9.015396 1.836580 -9.160856 -4.607254 -3.146513 -9.485507 -0.157676 10.715392 -26.586700 -10.210686 -2.247661 -0.150295 -0.523846 0.000000 0.000000 0.000000 12.355981 -4.140319 -3.364625 -87.453272 -6.746150 27.967727 178.258253 -65.315171 179.796115 17.972229 -19.954502 -3.478054 -0.448124 1.340076 0.000000 0.000000 0.000000 0.000000 0.000000 0.000000 0.000000 6.054842 -26.347992 -1.240131 54.830147 -3.425862 19.738709 179.019857 68.498254 179.974075 -12.253298 27.926582 -3.230350 0.286677 -0.900428 -0.000000 0.000000 0.000000 0.000000 0.000000 0.000000 0.000000 
-7.970963 17.401052 -0.736929 -133.925508 87.616815 -117.079008 3.446698 -8.718518 -8.627545 1.782233 -9.182499 -4.512475 -3.308954 -9.494994 -0.172123 10.895706 -26.399296 -10.157625 -2.299639 -0.155101 -0.511295 0.000000 0.000000 0.000000 11.955135 -4.058023 -3.282094 -87.354099 -5.832391 27.559845 178.265796 -65.957657 179.797631 17.904863 -20.030029 -3.472610 -0.433887 1.322293 0.000000 0.000000 0.000000 0.000000 0.000000 0.000000 0.000000 6.420544 -26.151042 -1.297262 55.648902 -2.460409 19.786194 178.999600 68.595187 179.973616 -12.086609 27.755085 -3.167469 0.284985 -0.905170 0.000000 0.000000 0.000000 0.000000 0.000000 0.000000 0.000000 
